<?xml version="1.0" encoding="UTF-8" standalone="no"?>
<!DOCTYPE svg PUBLIC "-//W3C//DTD SVG 1.1//EN" "http://www.w3.org/Graphics/SVG/1.1/DTD/svg11.dtd">
<svg version="1.1" xmlns="http://www.w3.org/2000/svg" xmlns:xlink="http://www.w3.org/1999/xlink" preserveAspectRatio="xMidYMid meet" viewBox="0 0 640 640" width="640" height="640"><defs><path d="M39.29 22.45L600.71 22.45L600.71 214.96L39.29 214.96L39.29 22.45Z" id="a2uSkLAuK3"></path><path d="M78.08 225.21L600.71 225.21L600.71 249.36L78.08 249.36L78.08 225.21Z" id="cOQvzdTU6"></path><path d="M65.81 239.14C65.81 246.21 60.32 251.95 53.55 251.95C46.78 251.95 41.29 246.21 41.29 239.14C41.29 232.07 46.78 226.33 53.55 226.33C60.32 226.33 65.81 232.07 65.81 239.14Z" id="f1J0UdHyy"></path><path d="M77.08 267.21L599.71 267.21L599.71 291.36L77.08 291.36L77.08 267.21Z" id="b184tL5pJf"></path><path d="M65.81 278.56C65.81 285.63 60.32 291.36 53.55 291.36C46.78 291.36 41.29 285.63 41.29 278.56C41.29 271.49 46.78 265.75 53.55 265.75C60.32 265.75 65.81 271.49 65.81 278.56Z" id="drgzmuhgj"></path><path d="M76.08 308.21L598.71 308.21L598.71 332.36L76.08 332.36L76.08 308.21Z" id="d2ox86NfYT"></path><path d="M65.81 319.56C65.81 326.63 60.32 332.36 53.55 332.36C46.78 332.36 41.29 326.63 41.29 319.56C41.29 312.49 46.78 306.75 53.55 306.75C60.32 306.75 65.81 312.49 65.81 319.56Z" id="eiN64QGzk"></path><path d="M75.08 349.21L597.71 349.21L597.71 373.36L75.08 373.36L75.08 349.21Z" id="h16SRprLH4"></path><path d="M65.81 359.56C65.81 366.63 60.32 372.36 53.55 372.36C46.78 372.36 41.29 366.63 41.29 359.56C41.29 352.49 46.78 346.75 53.55 346.75C60.32 346.75 65.81 352.49 65.81 359.56Z" id="c77PMosOi"></path></defs><g><g><g><use xlink:href="#a2uSkLAuK3" opacity="1" fill="#f6f5f6" fill-opacity="1"></use></g><g><use xlink:href="#cOQvzdTU6" opacity="1" fill="#f6f5f6" fill-opacity="1"></use></g><g><use xlink:href="#f1J0UdHyy" opacity="1" fill="#b78db5" fill-opacity="1"></use></g><g><use xlink:href="#b184tL5pJf" opacity="1" fill="#f6f5f6" fill-opacity="1"></use></g><g><use xlink:href="#drgzmuhgj" opacity="1" fill="#b78db5" fill-opacity="1"></use></g><g><use xlink:href="#d2ox86NfYT" opacity="1" fill="#f6f5f6" fill-opacity="1"></use></g><g><use xlink:href="#eiN64QGzk" opacity="1" fill="#b78db5" fill-opacity="1"></use></g><g><use xlink:href="#h16SRprLH4" opacity="1" fill="#f6f5f6" fill-opacity="1"></use></g><g><use xlink:href="#c77PMosOi" opacity="1" fill="#b78db5" fill-opacity="1"></use></g></g></g></svg>