<?xml version="1.0" encoding="UTF-8" standalone="no"?>
<!DOCTYPE svg PUBLIC "-//W3C//DTD SVG 1.1//EN" "http://www.w3.org/Graphics/SVG/1.1/DTD/svg11.dtd">
<svg version="1.1" xmlns="http://www.w3.org/2000/svg" xmlns:xlink="http://www.w3.org/1999/xlink" preserveAspectRatio="xMidYMid meet" viewBox="0 0 640 640" width="640" height="640"><defs><path d="M22.65 29.41L619.99 29.41L619.99 190.83L22.65 190.83L22.65 29.41Z" id="e42nFWKvFq"></path><path d="M54.08 226.03C54.08 234.42 47.04 241.24 38.37 241.24C29.69 241.24 22.65 234.42 22.65 226.03C22.65 217.64 29.69 210.83 38.37 210.83C47.04 210.83 54.08 217.64 54.08 226.03Z" id="c3mCzS3dKQ"></path><path d="M59.54 213.17L258.39 213.17L258.39 241.24L59.54 241.24L59.54 213.17Z" id="bLNFqYsa5"></path><path d="M59.54 259.04L258.39 259.04L258.39 287.11L59.54 287.11L59.54 259.04Z" id="c8oGCzLEN"></path><path d="M54.08 271.9C54.08 280.3 47.04 287.11 38.37 287.11C29.69 287.11 22.65 280.3 22.65 271.9C22.65 263.51 29.69 256.7 38.37 256.7C47.04 256.7 54.08 263.51 54.08 271.9Z" id="cziIynr5"></path><path d="M59.54 308.3L258.39 308.3L258.39 336.38L59.54 336.38L59.54 308.3Z" id="azV3Ovukw"></path><path d="M54.08 320C54.08 328.39 47.04 335.21 38.37 335.21C29.69 335.21 22.65 328.39 22.65 320C22.65 311.61 29.69 304.79 38.37 304.79C47.04 304.79 54.08 311.61 54.08 320Z" id="bYiZ1cMkY"></path><path d="M371.33 227.2C371.33 235.59 364.29 242.41 355.61 242.41C346.94 242.41 339.9 235.59 339.9 227.2C339.9 218.81 346.94 212 355.61 212C364.29 212 371.33 218.81 371.33 227.2Z" id="b154TYrzl7"></path><path d="M386.83 213.17L619.99 213.17L619.99 241.24L386.83 241.24L386.83 213.17Z" id="b12Dvy2ES3"></path><path d="M371.33 271.9C371.33 280.3 364.29 287.11 355.61 287.11C346.94 287.11 339.9 280.3 339.9 271.9C339.9 263.51 346.94 256.7 355.61 256.7C364.29 256.7 371.33 263.51 371.33 271.9Z" id="a3JqMymUSG"></path><path d="M371.33 320C371.33 328.39 364.29 335.21 355.61 335.21C346.94 335.21 339.9 328.39 339.9 320C339.9 311.61 346.94 304.79 355.61 304.79C364.29 304.79 371.33 311.61 371.33 320Z" id="b7zXHyGtdO"></path><path d="M386.83 259.04L619.99 259.04L619.99 287.11L386.83 287.11L386.83 259.04Z" id="a24kvgIaNq"></path><path d="M386.83 308.3L619.99 308.3L619.99 336.38L386.83 336.38L386.83 308.3Z" id="b1bBb9FSIx"></path></defs><g><g><g><use xlink:href="#e42nFWKvFq" opacity="1" fill="#f6f5f6" fill-opacity="1"></use></g><g><use xlink:href="#c3mCzS3dKQ" opacity="1" fill="#f9cdf9" fill-opacity="1"></use></g><g><use xlink:href="#bLNFqYsa5" opacity="1" fill="#f6f5f6" fill-opacity="1"></use></g><g><use xlink:href="#c8oGCzLEN" opacity="1" fill="#f6f5f6" fill-opacity="1"></use></g><g><use xlink:href="#cziIynr5" opacity="1" fill="#f9cdf9" fill-opacity="1"></use></g><g><use xlink:href="#azV3Ovukw" opacity="1" fill="#f6f5f6" fill-opacity="1"></use></g><g><use xlink:href="#bYiZ1cMkY" opacity="1" fill="#f9cdf9" fill-opacity="1"></use></g><g><use xlink:href="#b154TYrzl7" opacity="1" fill="#f9cdf9" fill-opacity="1"></use></g><g><use xlink:href="#b12Dvy2ES3" opacity="1" fill="#f6f5f6" fill-opacity="1"></use></g><g><use xlink:href="#a3JqMymUSG" opacity="1" fill="#f9cdf9" fill-opacity="1"></use></g><g><use xlink:href="#b7zXHyGtdO" opacity="1" fill="#f9cdf9" fill-opacity="1"></use></g><g><use xlink:href="#a24kvgIaNq" opacity="1" fill="#f6f5f6" fill-opacity="1"></use></g><g><use xlink:href="#b1bBb9FSIx" opacity="1" fill="#f6f5f6" fill-opacity="1"></use></g></g></g></svg>