<?xml version="1.0" encoding="UTF-8" standalone="no"?>
<!DOCTYPE svg PUBLIC "-//W3C//DTD SVG 1.1//EN" "http://www.w3.org/Graphics/SVG/1.1/DTD/svg11.dtd">
<svg version="1.1" xmlns="http://www.w3.org/2000/svg" xmlns:xlink="http://www.w3.org/1999/xlink" preserveAspectRatio="xMidYMid meet" viewBox="0 0 640 640" width="640" height="640"><defs><path d="M24.45 30.69L608.53 30.69L608.53 191.33L24.45 191.33L24.45 30.69Z" id="aCJq7Ud8g"></path><path d="M24.45 213.94L66.56 213.94L66.56 252.16L24.45 252.16L24.45 213.94Z" id="cKvUu7nt"></path><path d="M24.45 252.16L66.56 252.16L66.56 290.37L24.45 290.37L24.45 252.16Z" id="botzro9Q"></path><path d="M24.45 290.11L66.56 290.11L66.56 328.32L24.45 328.32L24.45 290.11Z" id="a1obwO025"></path><path d="M24.45 328.32L66.56 328.32L66.56 366.53L24.45 366.53L24.45 328.32Z" id="b125DNNN4K"></path><path d="M24.45 366.53L66.56 366.53L66.56 404.74L24.45 404.74L24.45 366.53Z" id="a21zcOsft5"></path><path d="M66.56 213.94L608.53 213.94L608.53 252.16L66.56 252.16L66.56 213.94Z" id="a11QqfKEya"></path><path d="M66.56 252.16L608.53 252.16L608.53 290.37L66.56 290.37L66.56 252.16Z" id="a1lWbRoLnn"></path><path d="M66.56 290.11L608.53 290.11L608.53 328.32L66.56 328.32L66.56 290.11Z" id="g4uGBaews"></path><path d="M66.56 328.32L608.53 328.32L608.53 366.53L66.56 366.53L66.56 328.32Z" id="b1306Xf0KP"></path><path d="M66.56 366.53L608.53 366.53L608.53 404.74L66.56 404.74L66.56 366.53Z" id="cmRazdjaq"></path><path d="M57.28 234.23C57.28 241.35 51.68 247.13 44.78 247.13C37.88 247.13 32.28 241.35 32.28 234.23C32.28 227.12 37.88 221.34 44.78 221.34C51.68 221.34 57.28 227.12 57.28 234.23Z" id="b49Y2pY6lm"></path><path d="M57.28 271.26C57.28 278.38 51.68 284.15 44.78 284.15C37.88 284.15 32.28 278.38 32.28 271.26C32.28 264.15 37.88 258.37 44.78 258.37C51.68 258.37 57.28 264.15 57.28 271.26Z" id="a13HgbQ1DI"></path><path d="M57.28 309.22C57.28 316.33 51.68 322.11 44.78 322.11C37.88 322.11 32.28 316.33 32.28 309.22C32.28 302.1 37.88 296.32 44.78 296.32C51.68 296.32 57.28 302.1 57.28 309.22Z" id="briJkKSG0"></path><path d="M57.28 347.43C57.28 354.54 51.68 360.32 44.78 360.32C37.88 360.32 32.28 354.54 32.28 347.43C32.28 340.31 37.88 334.54 44.78 334.54C51.68 334.54 57.28 340.31 57.28 347.43Z" id="d2hOesJ3Wi"></path><path d="M57.28 385.64C57.28 392.75 51.68 398.53 44.78 398.53C37.88 398.53 32.28 392.75 32.28 385.64C32.28 378.52 37.88 372.75 44.78 372.75C51.68 372.75 57.28 378.52 57.28 385.64Z" id="aekrDQXKY"></path><path d="M71.34 218.13L601.81 218.13L601.81 247.16L71.34 247.16L71.34 218.13Z" id="fzafRD0rb"></path><path d="M71.34 256.75L601.81 256.75L601.81 285.78L71.34 285.78L71.34 256.75Z" id="g1cUzf4Bk7"></path><path d="M71.34 294.7L601.81 294.7L601.81 323.73L71.34 323.73L71.34 294.7Z" id="bLvgMYaDP"></path><path d="M71.34 334.54L601.81 334.54L601.81 363.57L71.34 363.57L71.34 334.54Z" id="b3jcS4EIRj"></path><path d="M71.34 371.12L601.81 371.12L601.81 400.15L71.34 400.15L71.34 371.12Z" id="n59mlvLkcj"></path></defs><g><g><g><use xlink:href="#aCJq7Ud8g" opacity="1" fill="#f6f5f6" fill-opacity="1"></use></g><g><use xlink:href="#cKvUu7nt" opacity="1" fill="#f6f5f6" fill-opacity="0"></use><g><use xlink:href="#cKvUu7nt" opacity="1" fill-opacity="0" stroke="#5f5f5f" stroke-width="1" stroke-opacity="1"></use></g></g><g><use xlink:href="#botzro9Q" opacity="1" fill="#f6f5f6" fill-opacity="0"></use><g><use xlink:href="#botzro9Q" opacity="1" fill-opacity="0" stroke="#5f5f5f" stroke-width="1" stroke-opacity="1"></use></g></g><g><use xlink:href="#a1obwO025" opacity="1" fill="#f6f5f6" fill-opacity="0"></use><g><use xlink:href="#a1obwO025" opacity="1" fill-opacity="0" stroke="#5f5f5f" stroke-width="1" stroke-opacity="1"></use></g></g><g><use xlink:href="#b125DNNN4K" opacity="1" fill="#f6f5f6" fill-opacity="0"></use><g><use xlink:href="#b125DNNN4K" opacity="1" fill-opacity="0" stroke="#5f5f5f" stroke-width="1" stroke-opacity="1"></use></g></g><g><use xlink:href="#a21zcOsft5" opacity="1" fill="#f6f5f6" fill-opacity="0"></use><g><use xlink:href="#a21zcOsft5" opacity="1" fill-opacity="0" stroke="#5f5f5f" stroke-width="1" stroke-opacity="1"></use></g></g><g><use xlink:href="#a11QqfKEya" opacity="1" fill="#f6f5f6" fill-opacity="0"></use><g><use xlink:href="#a11QqfKEya" opacity="1" fill-opacity="0" stroke="#5f5f5f" stroke-width="1" stroke-opacity="1"></use></g></g><g><use xlink:href="#a1lWbRoLnn" opacity="1" fill="#f6f5f6" fill-opacity="0"></use><g><use xlink:href="#a1lWbRoLnn" opacity="1" fill-opacity="0" stroke="#5f5f5f" stroke-width="1" stroke-opacity="1"></use></g></g><g><use xlink:href="#g4uGBaews" opacity="1" fill="#f6f5f6" fill-opacity="0"></use><g><use xlink:href="#g4uGBaews" opacity="1" fill-opacity="0" stroke="#5f5f5f" stroke-width="1" stroke-opacity="1"></use></g></g><g><use xlink:href="#b1306Xf0KP" opacity="1" fill="#f6f5f6" fill-opacity="0"></use><g><use xlink:href="#b1306Xf0KP" opacity="1" fill-opacity="0" stroke="#5f5f5f" stroke-width="1" stroke-opacity="1"></use></g></g><g><use xlink:href="#cmRazdjaq" opacity="1" fill="#f6f5f6" fill-opacity="0"></use><g><use xlink:href="#cmRazdjaq" opacity="1" fill-opacity="0" stroke="#5f5f5f" stroke-width="1" stroke-opacity="1"></use></g></g><g><use xlink:href="#b49Y2pY6lm" opacity="1" fill="#f9ccf9" fill-opacity="0.97"></use></g><g><use xlink:href="#a13HgbQ1DI" opacity="1" fill="#f9cbf9" fill-opacity="0.97"></use></g><g><use xlink:href="#briJkKSG0" opacity="1" fill="#f9cbf9" fill-opacity="0.97"></use></g><g><use xlink:href="#d2hOesJ3Wi" opacity="1" fill="#f9cbf9" fill-opacity="0.97"></use></g><g><use xlink:href="#aekrDQXKY" opacity="1" fill="#f9cbf9" fill-opacity="0.97"></use></g><g><use xlink:href="#fzafRD0rb" opacity="1" fill="#f6f5f6" fill-opacity="1"></use></g><g><use xlink:href="#g1cUzf4Bk7" opacity="1" fill="#f6f5f6" fill-opacity="1"></use></g><g><use xlink:href="#bLvgMYaDP" opacity="1" fill="#f6f5f6" fill-opacity="1"></use></g><g><use xlink:href="#b3jcS4EIRj" opacity="1" fill="#f6f5f6" fill-opacity="1"></use></g><g><use xlink:href="#n59mlvLkcj" opacity="1" fill="#f6f5f6" fill-opacity="1"></use></g></g></g></svg>