<?xml version="1.0" encoding="UTF-8" standalone="no"?>
<!DOCTYPE svg PUBLIC "-//W3C//DTD SVG 1.1//EN" "http://www.w3.org/Graphics/SVG/1.1/DTD/svg11.dtd">
<svg version="1.1" xmlns="http://www.w3.org/2000/svg" xmlns:xlink="http://www.w3.org/1999/xlink" preserveAspectRatio="xMidYMid meet" viewBox="0 0 640 640" width="642" height="642"><defs><path d="M15.09 17.43L320 17.43L320 188.92L15.09 188.92L15.09 17.43Z" id="a2n4VhYXbm"></path><path d="M403.62 20.11L625.09 20.11L625.09 50.52L403.62 50.52L403.62 20.11Z" id="a3R1fSj1fh"></path><path d="M393.39 34.93C393.39 43.1 386.36 49.74 377.7 49.74C369.04 49.74 362.01 43.1 362.01 34.93C362.01 26.75 369.04 20.11 377.7 20.11C386.36 20.11 393.39 26.75 393.39 34.93Z" id="a11kcAXJrp"></path><path d="M393.39 80.8C393.39 88.98 386.36 95.61 377.7 95.61C369.04 95.61 362.01 88.98 362.01 80.8C362.01 72.62 369.04 65.98 377.7 65.98C386.36 65.98 393.39 72.62 393.39 80.8Z" id="cvPOHvPhV"></path><path d="M403.62 65.98L625.09 65.98L625.09 96.39L403.62 96.39L403.62 65.98Z" id="aFmB8iBT7"></path><path d="M393.39 125.89C393.39 134.07 386.36 140.71 377.7 140.71C369.04 140.71 362.01 134.07 362.01 125.89C362.01 117.71 369.04 111.07 377.7 111.07C386.36 111.07 393.39 117.71 393.39 125.89Z" id="bM5S9AXX1"></path><path d="M403.62 113.35L625.09 113.35L625.09 143.76L403.62 143.76L403.62 113.35Z" id="ibV85OsF"></path><path d="M393.39 173.32C393.39 181.5 386.36 188.14 377.7 188.14C369.04 188.14 362.01 181.5 362.01 173.32C362.01 165.14 369.04 158.5 377.7 158.5C386.36 158.5 393.39 165.14 393.39 173.32Z" id="b3UEg8qjP0"></path><path d="M403.62 158.5L625.09 158.5L625.09 188.92L403.62 188.92L403.62 158.5Z" id="d1Yj57aFC9"></path></defs><g><g><g><use xlink:href="#a2n4VhYXbm" opacity="1" fill="#f6f5f6" fill-opacity="1"></use></g><g><use xlink:href="#a3R1fSj1fh" opacity="1" fill="#f6f5f6" fill-opacity="1"></use></g><g><use xlink:href="#a11kcAXJrp" opacity="1" fill="#fbd3fb" fill-opacity="1"></use></g><g><use xlink:href="#cvPOHvPhV" opacity="1" fill="#fbd3fb" fill-opacity="1"></use></g><g><use xlink:href="#aFmB8iBT7" opacity="1" fill="#f6f5f6" fill-opacity="1"></use></g><g><use xlink:href="#bM5S9AXX1" opacity="1" fill="#fbd3fb" fill-opacity="1"></use></g><g><use xlink:href="#ibV85OsF" opacity="1" fill="#f6f5f6" fill-opacity="1"></use></g><g><use xlink:href="#b3UEg8qjP0" opacity="1" fill="#fbd3fb" fill-opacity="1"></use></g><g><use xlink:href="#d1Yj57aFC9" opacity="1" fill="#f6f5f6" fill-opacity="1"></use></g></g></g></svg>